PathFileType	4	(X/Y/Z)	C:\Users\WrightLab\Desktop\Jo\P1_boxCal27.trc
DataRate	CameraRate	NumFrames	NumMarkers	Units	OrigDataRate	OrigDataStartFrame	OrigNumFrames
100.00	100.00	       10	19	mm	100.00	349	       465
Frame#	Time	Headset_Front			Headset_Back			Headset_Left			Headset_Right			Left_Shoulder			Right_Shoulder			Sternum			C7			Left Elbow			Right Elbow			Left Wrist			Right Wrist			Left ASIS			Right ASIS			S2			Left Knee			Right Knee			Left Ankle			Right Ankle			
		X1	Y1	Z1	X2	Y2	Z2	X3	Y3	Z3	X4	Y4	Z4	X5	Y5	Z5	X6	Y6	Z6	X7	Y7	Z7	X8	Y8	Z8	X9	Y9	Z9	X10	Y10	Z10	X11	Y11	Z11	X12	Y12	Z12	X13	Y13	Z13	X14	Y14	Z14	X15	Y15	Z15	X16	Y16	Z16	X17	Y17	Z17	X18	Y18	Z18	X19	Y19	Z19	

349	3.480	-302.48349	1464.69226	1987.20959	-3.02744	1310.49255	1831.11145	-98.80666	1502.66296	2007.29944				16.59596	1318.65955	2041.96179	-216.34840	1312.87146	1743.00891	-220.65222	1226.41370	1967.16052				48.93741	1001.06207	2132.16772	-242.94434	1034.30798	1671.00427	-105.49850	847.03461	2224.78613	-430.29669	881.83228	1784.78333	-186.92175	951.90051	2088.65479	-291.40591	943.41522	1923.36938				-94.22454	551.79419	2228.30737	-190.12294	476.08105	1847.42151	-4.60129	207.73117	2291.22607	-67.39886	177.33908	2305.20605	
350	3.490	-307.48318	1464.08875	1991.52502	-5.45751	1309.51184	1842.38135	-104.04778	1502.29138	2015.26550				9.60550	1317.72314	2052.29883	-216.59837	1311.51709	1747.74109	-226.33916	1226.19336	1973.25220				40.52652	1000.22638	2142.89795				-116.43512	846.90796	2232.90552	-431.43149	882.25507	1790.63245	-195.50168	952.01050	2094.91602	38.22253	925.44250	1854.08716				-107.85183	551.92633	2235.54126	-189.83513	475.37720	1851.82727	-29.28252	207.58572	2315.29492	-91.82397	180.79153	2329.03760	
351	3.500	-312.59488	1463.74744	1995.71045	-7.99823	1308.77844	1852.07581	-109.46661	1501.65991	2021.93848				2.71355	1317.00684	2062.78906	-216.74763	1310.01392	1752.29626	-231.55040	1225.14307	1977.36890				31.35761	999.36389	2153.00830				-126.87953	846.10236	2240.41357	-432.10690	882.71100	1795.94373	-202.56262	950.83850	2099.41089	35.78029	924.71198	1865.58496				-121.15228	553.52917	2245.24683	-189.74780	474.35413	1856.60742	-53.25993	210.68805	2340.17822	-116.96935	184.36781	2350.43604	
352	3.510	-317.56085	1463.26721	1999.62329	-10.55482	1307.59106	1864.30676	-114.88591	1500.62964	2029.66431				-4.41832	1316.74207	2072.99146	-216.63524	1308.50195	1757.53491	-236.05431	1223.60242	1980.91650				22.33408	999.82355	2165.02441				-137.53674	846.29559	2248.31592	-432.25522	882.85992	1796.11792	-210.60529	951.49152	2106.42090	32.71939	923.33704	1873.79297				-134.68987	554.83960	2253.97510	-190.55995	474.11682	1860.82458	-77.27975	215.00247	2365.72583				
353	3.520	-322.66965	1463.15149	2003.39087	-13.25603	1306.79150	1874.16199	-120.45889	1500.12866	2036.71606				-11.71208	1315.92249	2082.55615	-216.63287	1306.75354	1762.87500	-241.71591	1222.99316	1986.17151				13.17581	998.52240	2175.30591	-237.37445	1026.72034	1695.35120	-148.09804	845.33484	2256.28711	-431.98209	880.57184	1803.98010	-218.04869	950.09033	2112.11792	30.97327	922.50256	1889.96570				-147.69998	555.26355	2261.82568	-190.77812	473.07507	1868.50769	-103.94678	218.57451	2385.34155	-169.48779	190.75598	2387.78857	
354	3.530	-327.83533	1462.35120	2007.17444	-15.98895	1305.93628	1884.27197	-125.73612	1498.87512	2044.19885				-19.45247	1315.05908	2092.53931	-216.25191	1305.21704	1768.53699	-246.97343	1222.80139	1992.55371				3.85224	997.54596	2185.80615				-159.20264	844.84326	2264.57739	-431.55365	880.14154	1803.47620	-226.65656	949.51196	2118.81421	27.70727	920.80920	1898.77893				-159.67239	556.56549	2271.11499	-192.17064	473.33325	1872.87610	-129.22765	221.52563	2405.55176	-195.39503	192.42250	2402.34106	
355	3.540	-332.96490	1461.66321	2010.92505	-18.98176	1304.84216	1895.51111	-132.12784	1497.66333	2052.70605				-27.13965	1314.52771	2103.43701	-216.13663	1303.56165	1773.71094	-251.75409	1220.78308	1995.72351				-5.82369	997.28809	2197.40137				-169.85451	844.52686	2272.38232	-430.52225	877.45392	1807.43494	-234.64616	948.89526	2124.39624	25.74065	920.15118	1913.58911				-171.94121	558.28143	2280.79272	-193.38773	473.00735	1874.46252	-154.79114	226.54817	2425.25171	-221.41739	195.64658	2416.29614	
356	3.550	-338.14819	1460.81421	2014.62708	-21.63550	1303.48181	1906.73657	-138.08292	1497.07178	2060.41431				-34.89398	1314.40881	2114.63574				-256.41058	1220.32739	2000.94666				-15.82249	997.03516	2208.15796				-180.79091	843.66992	2280.64624	-428.79410	874.17242	1810.09619	-242.89864	948.22357	2130.05200	21.96861	919.28168	1924.97144				-183.82790	560.08057	2290.07959	-194.63226	471.78546	1880.66846	-180.22836	231.17439	2442.41870	-246.61185	198.71521	2429.06152	
357	3.560	-343.22745	1460.52173	2017.77002	-24.09951	1302.29150	1919.29480	-143.85823	1495.66736	2067.78198				-42.86340	1313.62354	2124.67651				-262.18390	1219.22314	2005.90051				-25.64235	995.25183	2218.85254				-191.67767	842.95361	2288.92529	-426.72913	870.38159	1812.88318	-251.33383	947.20642	2135.85156	18.65845	918.27075	1937.73572				-196.22481	560.87506	2299.30103	-195.25519	469.72739	1885.70618	-204.70753	234.19154	2457.65869	-270.30417	199.49045	2439.11133	
358	3.570	-348.37503	1459.71667	2021.07507	-27.47680	1301.04846	1929.64624	-150.77599	1495.37756	2076.33325				-50.89375	1312.54382	2134.69385				-267.39291	1218.02966	2012.66846				-36.11805	995.83557	2231.27490				-202.73268	842.00220	2296.32373	-424.95642	866.13385	1816.03040	-259.79382	945.86371	2141.70776	14.12805	915.88104	1945.44385				-208.61525	561.92267	2307.72388	-196.23238	469.90720	1889.55249	-229.09639	236.66603	2470.22290	-293.38397	200.57191	2448.54614	
